<?xml version="1.0" standalone="no"?>
<!DOCTYPE svg PUBLIC "-//W3C//DTD SVG 20010904//EN"
 "http://www.w3.org/TR/2001/REC-SVG-20010904/DTD/svg10.dtd">
<svg version="1.0" xmlns="http://www.w3.org/2000/svg"
 width="300.000000pt" height="300.000000pt" viewBox="0 0 300.000000 300.000000"
 preserveAspectRatio="xMidYMid meet">
<metadata>
Created by potrace 1.11, written by Peter Selinger 2001-2013
</metadata>
<g transform="translate(0.000000,300.000000) scale(0.100000,-0.100000)"
fill="#000000" stroke="none">
<path d="M685 2614 c-146 -36 -225 -93 -225 -163 0 -35 51 -82 105 -95 41 -11
50 -18 58 -42 25 -82 52 -136 85 -166 39 -35 42 -35 128 -17 29 7 64 9 79 5
25 -6 26 -10 21 -41 -8 -41 -15 -39 164 -55 69 -7 130 -16 137 -22 7 -5 17
-25 23 -44 13 -39 1 -64 -30 -64 -33 0 -154 42 -248 86 l-93 43 -77 -101 c-42
-55 -77 -105 -77 -111 0 -6 31 -33 69 -60 62 -44 71 -48 81 -33 10 13 18 14
44 5 17 -6 31 -14 31 -18 0 -7 -31 -74 -246 -522 -46 -96 -84 -180 -84 -186 0
-6 6 -16 14 -22 12 -10 18 -6 31 21 57 111 239 438 245 438 19 0 131 -133 160
-189 160 -319 -36 -701 -392 -761 -147 -25 -333 30 -444 132 -127 116 -191
301 -164 473 12 78 67 208 83 198 6 -3 7 -1 4 4 -4 6 4 22 18 37 13 14 21 26
17 26 -12 0 82 80 126 106 138 83 309 100 459 44 l53 -20 20 40 20 39 -53 19
c-178 67 -377 50 -540 -45 -116 -69 -217 -191 -262 -319 -21 -60 -25 -87 -25
-207 0 -113 4 -149 21 -200 47 -140 152 -270 271 -336 37 -21 65 -41 61 -46
-5 -4 -3 -6 3 -2 5 3 43 -3 84 -14 116 -30 253 -26 358 10 45 16 107 44 138
62 88 54 192 171 233 264 23 51 51 158 51 193 0 29 2 32 19 22 11 -5 40 -10
65 -10 l46 0 0 -44 c0 -58 24 -111 69 -155 43 -41 46 -43 126 -49 44 -3 72 1
100 14 22 9 42 17 45 16 3 0 21 22 40 49 42 62 51 136 25 204 -18 49 -29 55
-44 27 -7 -13 -5 -32 5 -62 25 -73 -6 -154 -73 -185 -46 -22 -120 -16 -161 13
-39 29 -65 93 -57 143 6 33 11 39 38 44 18 3 67 12 110 19 54 9 82 19 92 32 7
10 12 20 11 21 -2 2 -50 -4 -107 -13 -57 -8 -142 -16 -189 -17 -80 -2 -85 -1
-88 20 -2 13 4 26 16 32 36 19 156 60 163 55 4 -2 10 4 14 13 4 11 -28 93 -87
226 -79 176 -98 211 -125 228 -35 22 -48 48 -38 79 10 32 38 42 87 30 160 -36
257 22 228 138 -9 36 -8 47 2 53 28 17 99 -86 110 -159 3 -26 -8 -32 -174 -94
l-87 -33 46 -60 c69 -91 83 -133 95 -275 5 -69 10 -126 11 -126 1 -1 24 -4 51
-5 36 -3 51 0 57 11 4 8 56 127 115 263 59 136 110 244 114 240 3 -4 26 -33
51 -63 25 -30 57 -71 72 -91 l27 -36 -62 -64 c-71 -73 -128 -172 -153 -269
-19 -72 -22 -203 -7 -267 11 -47 8 -53 -23 -53 -17 0 -65 -46 -65 -63 0 -2 21
0 48 4 26 4 52 8 58 8 6 1 28 -31 49 -70 43 -78 142 -179 216 -220 130 -72
278 -95 424 -64 217 46 395 218 452 438 25 100 14 251 -25 352 -116 293 -430
445 -732 353 -36 -11 -69 -23 -73 -27 -4 -5 0 -24 9 -44 l17 -36 51 22 c41 17
73 21 166 21 108 1 207 -15 196 -32 -2 -4 6 -8 19 -8 37 -3 132 -72 181 -132
172 -211 165 -481 -16 -675 -137 -146 -344 -199 -535 -135 -81 27 -130 57
-196 122 -52 51 -110 139 -98 150 3 3 126 28 274 56 149 28 281 55 295 62 14
6 29 11 33 9 5 -1 6 3 3 8 -3 5 1 14 9 21 23 19 19 75 -8 105 -15 18 -36 28
-65 32 -23 3 -42 2 -42 -1 0 -20 23 -46 41 -46 11 0 24 -11 31 -25 22 -50 -1
-58 -312 -113 -156 -28 -286 -49 -288 -47 -10 10 -22 88 -22 151 0 81 27 184
67 252 14 23 27 42 30 42 2 0 1 -5 -3 -12 -4 -7 -3 -8 5 -4 6 4 9 12 6 17 -8
13 89 114 102 106 6 -4 82 -97 169 -207 87 -110 164 -200 171 -200 6 0 14 4
17 9 3 5 -110 170 -251 367 -141 198 -258 366 -260 374 -7 30 52 50 147 50 49
0 91 4 94 8 2 4 8 36 12 71 l7 62 -37 -6 c-42 -8 -41 -9 -20 41 20 48 13 100
-23 167 -51 93 -175 167 -386 231 -195 59 -409 70 -602 30 -92 -19 -115 -29
-115 -49 0 -19 -15 -19 -34 1 -20 19 -21 64 -3 64 25 0 50 37 43 64 -14 56
-183 93 -306 67 -48 -10 -150 -66 -150 -82 0 -3 11 -11 24 -19 21 -11 28 -10
54 9 54 38 116 61 167 61 60 0 118 -15 135 -35 9 -11 6 -17 -17 -28 -84 -43
-317 -65 -378 -36 -29 14 -48 59 -25 59 6 0 8 5 5 10 -3 6 2 13 12 17 10 4 21
10 24 15 11 16 119 48 186 54 79 7 160 -6 243 -40 43 -17 60 -20 60 -11 0 50
-118 96 -260 101 -52 1 -104 1 -115 -2z m226 -256 c6 -13 27 -39 46 -60 34
-34 35 -38 23 -72 -11 -36 -12 -36 -68 -36 -31 0 -74 -5 -96 -9 -22 -6 -48 -6
-62 -1 -27 11 -61 72 -70 128 l-6 41 38 0 c22 1 68 7 104 15 36 7 68 14 72 15
4 0 12 -9 19 -21z m731 -31 c53 -14 118 -35 145 -47 26 -12 49 -21 51 -20 1 0
30 -14 65 -31 162 -82 210 -166 156 -274 -29 -57 -64 -84 -198 -150 -134 -67
-146 -69 -146 -31 0 24 6 30 49 47 27 10 54 15 59 12 6 -3 7 -1 3 5 -3 6 4 14
16 18 13 4 46 22 75 40 79 51 101 108 67 180 -12 26 -32 41 -79 64 -79 38
-115 40 -115 6 0 -20 6 -25 45 -30 65 -10 105 -47 105 -96 0 -36 -4 -42 -44
-65 -24 -14 -81 -42 -126 -61 l-83 -36 -19 23 c-44 56 -43 57 24 78 35 10 79
26 98 34 l35 15 -40 7 c-22 4 -102 20 -179 34 l-139 26 -51 100 c-43 85 -58
105 -100 133 -92 61 -152 39 -211 -78 l-34 -68 39 -10 c34 -8 38 -7 32 7 -10
27 27 -7 44 -41 l15 -29 -63 6 c-138 13 -135 11 -119 61 6 16 19 61 31 101
l20 72 53 10 c92 18 109 19 267 16 128 -2 172 -7 252 -28z m-362 -54 c42 -29
57 -53 116 -183 90 -198 113 -291 79 -320 -37 -31 -214 12 -448 110 l-92 38
-43 -60 c-36 -49 -46 -57 -58 -47 -22 18 -17 30 30 82 24 26 41 47 38 47 -3 0
-1 5 5 11 8 8 17 8 33 -1 70 -38 253 -90 313 -90 106 0 99 99 -18 266 -71 103
-71 101 -35 134 37 35 47 36 80 13z m298 -279 c2 -1 -11 -10 -28 -19 -27 -14
-34 -15 -41 -3 -18 28 -10 37 29 31 20 -3 39 -7 40 -9z m-542 -175 c38 -17 71
-35 72 -40 2 -5 7 -7 12 -4 11 6 60 -15 60 -26 0 -5 -9 -13 -19 -19 -48 -25
-30 -85 45 -146 39 -32 59 -65 135 -216 49 -98 89 -182 89 -186 0 -5 -18 -14
-39 -21 -21 -6 -68 -26 -104 -44 l-64 -32 -18 75 c-30 131 -84 224 -188 322
-45 42 -58 60 -50 70 5 7 33 56 62 110 l51 96 -65 37 c-36 20 -65 40 -65 45 0
15 12 12 86 -21z m674 -341 c-51 -112 -99 -214 -106 -228 -14 -23 -14 -22 -9
26 11 92 -21 212 -77 284 l-19 24 141 48 c78 25 145 49 148 52 21 22 2 -28
-78 -206z"/>
<path d="M1907 1061 c-3 -12 1 -22 11 -26 19 -7 419 -6 439 2 11 5 11 9 -3 24
-16 17 -34 19 -229 19 -202 0 -213 -1 -218 -19z"/>
</g>
</svg>
